# xmcd
#
# Track frame offsets: 
#        150
#        23989
#        41162
#        66198
#        86666
#        101444
#        122592
#        140069
#        158769
#        174383
#
# Disc length: 2612 seconds
#
# Revision: 0
# Processed by: cddbd v1.5.2PL0 Copyright (c) Steve Scherf et al.
# Submitted via: ExactAudioCopy v0.99pb3
#
DISCID=830a320a
DTITLE=Robin Hunter And The Six Foot Bullies - You Just Gonna Get Used
DTITLE=To It
DYEAR=2008
DGENRE=Blues
TTITLE0=Drunk Limousine
TTITLE1=Purple Is a Royal Color
TTITLE2=Dayless Moonlight
TTITLE3=Dark Days Ahead
TTITLE4=A Way Out of the Irons
TTITLE5=Hard to Speak What You Wish
TTITLE6=Buildingful Sky
TTITLE7=Hurt Strangers
TTITLE8=Baby I'm Watching Your Every Move
TTITLE9=Sunken Gem
EXTD=
EXTT0=
EXTT1=
EXTT2=
EXTT3=
EXTT4=
EXTT5=
EXTT6=
EXTT7=
EXTT8=
EXTT9=
PLAYORDER=
